<?xml version="1.0" encoding="utf-8"?>
<svg version="1.1" xmlns="http://www.w3.org/2000/svg" viewBox="0 0 510.2 510.2" xml:space="preserve">
  <style type="text/css">
    .mark{fill:#FFF500;}
    .word{fill:#9933FF;}
  </style>
  <g>
    <polygon class="mark" points="425.2,141.7 425.2,113.4 396.9,113.4 396.9,85 368.5,85 340.2,85 340.2,56.7 311.8,56.7 283.5,56.7
      255.1,56.7 226.8,56.7 226.8,85 198.4,85 198.4,113.4 170.1,113.4 170.1,141.7 141.7,141.7 141.7,170.1 113.4,170.1 113.4,198.4
      113.4,226.8 85,226.8 85,255.1 56.7,255.1 56.7,283.5 56.7,311.8 56.7,340.2 85,340.2 85,368.5 113.4,368.5 113.4,396.9
      113.4,425.2 141.7,425.2 170.1,425.2 170.1,453.5 198.4,453.5 226.8,453.5 255.1,453.5 283.5,453.5 311.8,453.5 340.2,453.5
      340.2,425.2 368.5,425.2 368.5,396.9 396.9,396.9 396.9,368.5 425.2,368.5 425.2,340.2 425.2,311.8 396.9,311.8 396.9,283.5
      396.9,255.1 425.2,255.1 425.2,226.8 453.5,226.8 453.5,198.4 453.5,170.1 453.5,141.7"/>
    <text
      class="word"
      x="255.1"
      y="262"
      text-anchor="middle"
      dominant-baseline="middle"
      font-family="Arial, Helvetica, sans-serif"
      font-size="45"
      font-weight="700"
      letter-spacing="0.4">
      digilab.ai
    </text>
  </g>
</svg>
