<?xml version="1.0" encoding="UTF-8"?>
<svg id="Ebene_1" xmlns="http://www.w3.org/2000/svg" xmlns:xlink="http://www.w3.org/1999/xlink" version="1.1" viewBox="0 0 142.99 89.05">
  <!-- Generator: Adobe Illustrator 30.3.0, SVG Export Plug-In . SVG Version: 2.1.1 Build 104)  -->
  <defs>
    <style>
      .st0 {
        fill: none;
      }

      .st1 {
        fill: #002851;
      }

      .st2 {
        clip-path: url(#clippath-1);
      }

      .st3 {
        fill: #fff;
      }

      .st4 {
        fill: #ffd500;
        fill-rule: evenodd;
      }
    </style>
    <clipPath id="clippath-1">
      <path class="st0" d="M53.02,7.37c-1.14.57-2.24,1.2-3.3,1.86-18.71,11.64-25.69,35.95-15.46,56.09.58,1.15,1.21,2.25,1.87,3.32h0s0,0,0,.01c11.65,18.71,35.73,25.84,55.69,15.93.1-.05.21-.1.31-.16,1.14-.58,2.24-1.2,3.3-1.86,18.71-11.64,25.69-35.95,15.46-56.08-.58-1.15-1.21-2.26-1.87-3.33C97.32,4.34,73.04-2.78,53.02,7.37"/>
    </clipPath>
  </defs>
  <rect class="st1" x="7.39" y="7.72" width="128.8" height="77.56"/>
  <g>
    <path class="st4" d="M52.83,7.94c21.05-10.68,46.78-2.27,57.46,18.79,10.68,21.05,2.27,46.78-18.79,57.46-21.05,10.68-46.78,2.27-57.46-18.79-10.68-21.05-2.27-46.78,18.78-57.46"/>
    <g class="st2">
      <path class="st3" d="M114.35,61.86c-.65.43-1.87.31-2.26-.29l-5.21,10.23-2.47-.34c-.12-.02-.19-.14-.16-.26l5.94-21.45c-.07,0-.87.21-.78-.2,1.56-7.18-1.28-16.32-3.65-20.1-2.54-4.04-7.82-6.14-11.36-9.34-.21-.2.25-.84.36-1.06-16.2-29.79-50.72-6.48-60.52,17.55-.1.25-.41.18-.39-.09l.3-5.39-.99,3.53c-.1.25-.41.17-.39-.1,1.25-14.32,13.51-25.65,25.07-30.82l-2.98.32c-.27.03-.36-.27-.11-.39,21.04-10.34,53.79.99,61.29,36.49.33,0,.91-.11.95.18l.76,5.85c.33,0,.89-.11.94.18l1.35,9.38.68,8.95-1.92,5.45c.06,1.33-2.35,7.24-2.76,7.33-.12.03-.23-.06-.24-.18l-1.42-15.43Z"/>
      <path class="st3" d="M36.63,62.15c-.72-.77-1.4-1.47-1.95-2.29-.61-.5-.93-1.27-1.56-1.74l-.24-.28c-1.16-2.21-2.22-4.34-3.19-6.41-.6-.93-1.05-1.67-1.25-2.05-7.92-15.59-1.47-12.94.66-6.16,3.34,5.84,3.81,7.25,3.95,7.73.48.36.87.96,1.16,1.47,1.31,1.45,2.8,3.03,3.08,5.06.32.23.65.44.89.76.91.33,1.58,1.46,1.98,2.26.23.46,0,1.36.48,2.06,3.79,3.24,5.47,4.35,9.72,6.29.8.36,1.87-.64,2.64-.11.16-.11.38-.18.66-.18,2.38.03,4.99-.33,7.33.23l.18-.58c.22-.7,1.63-4.06,2.67-2.42.54.85,1.02,1.86,1.79,2.54.04-1.14,1.23-4.52,2.38-2.95.35.47.67,1.02,1.05,1.59l.36.52c.32-.94-.5-2.31.25-2.79,1.12-.7,2.66.07,3.62.72.04-.55-.41-1.35.2-1.75.71-.46,1.56-.51,2.3-.39l-.21-.78c-.58-2.31-.91-4.93,2.6-3.3.45.21.92.48,1.35.77-.04-.62-.21-1.24-.44-1.82-2.25-1.67-1.4-5.93,1.54-3.73-.04-1.97-.4-3.49.04-5.61.83-1.97,2.05-.85,2.54.35.21.52.36,1.12.66,1.59-.79-2.64.19-7.22,4.54-9.42l.29-.08c3.26-.32,1.56,3.39,1.04,4.81-.85,2.36-1.69,5.21-.58,7.88.28.67-.47,2.14-1.48,1.5.49,1.64,1.03,3.26,1.32,4.93.34,1.95-2.4.36-2.93-.13.12.7,1.01,2.4.24,2.9-.92.59-1.82.08-2.29-.24l-.28-.21c-.43,2.52-.46,5.99-.47,6.02,0,.95-.82,1.24-1.44.52-.4-.47-.76-1.04-1.16-1.61l-.34-.46c-.02.26-.04.56-.05.9l-.02,1.53c-.09,4.62-1.77,1.8-3.19,0-.28,1.45-1.03,4.72-2.28,3.17-.39-.48-.7-1.02-1.05-1.53-.35,3.05-1.22,5.02-3.99,2.18l-.6-.64c-.09,1.74-.19,5.13-2.25,1.93-.36-.56-.67-1.25-1.46-.85-.29.15-.44.25-.52.31.11.73-.05,2.59-1.27,2-3.4-1.66-8.62-1-12.32-2.06-4.55-1.31-9.03-4.58-11.49-7.88-1.08-.29-3.99-2.75-3.24-4.07"/>
    </g>
  </g>
</svg>